<?xml version="1.0" encoding="utf-8"?>
<!-- Generator: Adobe Illustrator 23.0.1, SVG Export Plug-In . SVG Version: 6.00 Build 0)  -->
<svg version="1.1" id="Слой_1" xmlns="http://www.w3.org/2000/svg" xmlns:xlink="http://www.w3.org/1999/xlink" x="0px" y="0px"
	 viewBox="0 0 64 64" style="enable-background:new 0 0 64 64;" xml:space="preserve">
<style type="text/css">
	.st0{fill:#0D5CA3;}
	.st1{fill:#FFFFFF;}
</style>
<title>11</title>
<path class="st0" d="M10,0h44c5.5,0,10,4.5,10,10v44c0,5.5-4.5,10-10,10H10C4.5,64,0,59.5,0,54V10C0,4.5,4.5,0,10,0L10,0z"/>
<path class="st1" d="M53.5,19.5l-25.7-12c-3.1-1.5-6.9-0.1-8.3,3l0,0l-12,25.7c-1.5,3.1-0.1,6.8,3,8.3l0,0l25.7,12
	c3.1,1.5,6.8,0.1,8.3-3c0,0,0,0,0,0l0,0l12-25.7C58,24.7,56.7,21,53.5,19.5C53.5,19.5,53.5,19.5,53.5,19.5L53.5,19.5z"/>
<path class="st0" d="M41.2,22.9c-3.5-3.5-8.7-4.7-13.4-3.2l7.7,7.7L33.8,34l-6.7,1.8l-7.7-7.7C17.2,35,21,42.4,27.9,44.7
	c3.4,1.1,7.1,0.8,10.2-0.9l16.2,16.3l5.4-5.4L43.5,38.4C46.3,33.3,45.3,27,41.2,22.9z"/>
</svg>
