<svg xmlns="http://www.w3.org/2000/svg" width="40" height="40" viewBox="0 0 40 40">
  <defs>
    <linearGradient id="teamcity-a" x1="78.742%" x2="14.651%" y1="56.681%" y2="13.234%">
      <stop offset="0%" stop-color="#0CB0F2"/>
      <stop offset="100%" stop-color="#905CFB"/>
    </linearGradient>
    <linearGradient id="teamcity-b" x1="30.066%" x2="79.811%" y1="79.215%" y2="23.71%">
      <stop offset="0%" stop-color="#0CB0F2"/>
      <stop offset="100%" stop-color="#3BEA62"/>
    </linearGradient>
  </defs>
  <g fill="none" fill-rule="evenodd" transform="translate(4 4)">
    <path fill="#905CFB" d="M18.1703,21.8994 L15.3803,6.3364 C15.1973,5.1844 14.7733,4.0834 14.1353,3.1054 C13.2173,1.6684 11.7783,0.6434 10.1213,0.2444 C3.6233,-1.3086 -1.1987,5.1694 1.6453,10.9494 L1.6463,10.9614 L8.4003,25.4434 C8.6003,25.9184 8.8573,26.3664 9.1633,26.7784 C9.7033,27.5064 10.4593,28.0454 11.3243,28.3184 C15.7483,29.6994 19.2293,25.8134 18.1703,21.8994"/>
    <path fill="url(#teamcity-a)" d="M30.7963,12.1382 C30.1663,11.1562 29.2623,10.3812 28.1943,9.9102 L11.6373,0.8062 L11.6313,0.8182 C11.1533,0.5652 10.6463,0.3722 10.1213,0.2442 C3.0843,-1.4378 -1.9937,6.2992 2.5073,12.3672 C3.1983,13.2992 4.1433,14.0122 5.2283,14.4232 L21.9623,21.9012 C22.3173,22.1122 22.6953,22.2812 23.0903,22.4052 C29.5033,24.4062 34.3543,17.6652 30.7963,12.1382"/>
    <path fill="#0CB0F2" d="M30.7963,12.1382 C29.9723,10.8472 28.6803,9.9272 27.1923,9.5692 C25.7393,9.1992 24.2063,9.3132 22.8253,9.8962 L5.2043,16.5292 C5.2043,16.5292 5.1043,16.5842 4.9363,16.6912 C0.4013,18.4962 -1.8127,24.3922 1.8103,29.2762 C2.6183,30.3682 3.7523,31.1772 5.0493,31.5852 C7.1583,32.3002 9.4683,32.1232 11.4443,31.0952 L11.4693,31.0922 L28.6503,21.9142 C28.6503,21.9142 28.6703,21.8982 28.7063,21.8692 C31.7943,20.0612 33.1733,15.8312 30.7963,12.1382"/>
    <path fill="url(#teamcity-b)" d="M22.9710683,5.84531325 C23.5520683,4.49531325 23.4040683,2.94431325 22.5790683,1.72731325 C22.0710683,0.930313255 21.2720683,0.362313255 20.3530683,0.140313255 C18.5530683,-0.342686745 16.6540683,0.450313255 15.7340683,2.07231325 L1.61906833,19.2073133 L1.61306833,19.2313133 C-0.397931668,21.8923133 -0.741931668,25.8363133 1.81006833,29.2763133 C2.61806833,30.3683133 3.75206833,31.1773133 5.04906833,31.5853133 C9.84206833,33.0803133 13.8950683,30.4503133 15.1740683,26.6623133 L22.9710683,5.84531325 Z"/>
    <g transform="translate(6 6)">
      <polygon fill="#000" points="0 19.753 19.753 19.753 19.753 0 0 0"/>
      <polygon fill="#FFF" points="1.866 17.283 9.274 17.283 9.274 16.049 1.866 16.049"/>
      <polygon fill="#FFF" points="4.35 4.261 1.86 4.261 1.86 2.601 8.638 2.601 8.638 4.261 6.15 4.261 6.15 10.782 4.35 10.782"/>
      <path fill="#FFF" d="M8.7411,6.7154 L8.7411,6.6924 C8.7001,4.3964 10.5281,2.5014 12.8251,2.4604 C12.8861,2.4594 12.9461,2.4604 13.0081,2.4614 C14.2141,2.4014 15.3871,2.8614 16.2321,3.7234 L15.0881,5.0444 C14.5381,4.4744 13.7871,4.1424 12.9951,4.1214 C11.6161,4.1214 10.6231,5.2664 10.6231,6.6684 L10.6231,6.6924 C10.6231,8.0944 11.5931,9.2634 12.9951,9.2634 C13.9301,9.2634 14.5031,8.8894 15.1451,8.3044 L16.2911,9.4624 C15.4571,10.4384 14.2201,10.9774 12.9371,10.9234 C10.6561,10.9594 8.7781,9.1414 8.7411,6.8614 C8.7401,6.8124 8.7401,6.7634 8.7411,6.7154"/>
    </g>
  </g>
</svg>
